<?xml version="1.0" standalone="no"?><!DOCTYPE svg PUBLIC "-//W3C//DTD SVG 1.1//EN" "http://www.w3.org/Graphics/SVG/1.1/DTD/svg11.dtd"><svg width="463.1142578125" height="80" version="1.1" xmlns="http://www.w3.org/2000/svg" xmlns:xlink="http://www.w3.org/1999/xlink" style="height:80px;width:463.109px;perspective-origin:231.547px 40px;transform-origin:231.547px 40px;"><defs id="SvgjsDefs1150" style="height:auto;overflow-x:visible;overflow-y:visible;width:auto;perspective-origin:0px 0px;transform-origin:0px 0px;"/><g id="SvgjsG1151" featurekey="root" fill="#101011" style="height:auto;overflow-x:visible;overflow-y:visible;width:auto;perspective-origin:0px 0px;transform-origin:0px 0px;fill:rgb(16, 16, 17);"/><g id="SvgjsG1152" featurekey="text1" fill="#ff0000" transform="matrix(4.2857137018321305,0,0,4.2857137018321305,0.0000016604148782437354,-15.714276080230157)" style="height:auto;overflow-x:visible;overflow-y:visible;width:auto;perspective-origin:0px 0px;transform:matrix(4.28571, 0, 0, 4.28571, 1.66042e-06, -15.7143);transform-origin:0px 0px;fill:rgb(255, 0, 0);"><path d="M8.4 10.9 l0 -0.7 q0 -0.58 -0.41 -0.99 t-0.99 -0.41 l-2.8 0 q-0.58 0 -0.99 0.41 t-0.41 0.99 l0 5.6 q0 0.58 0.41 0.99 t0.99 0.41 l2.8 0 q0.58 0 0.99 -0.41 t0.41 -0.99 l0 -0.7 l2.8 0 l0 0.7 q0 0.88 -0.33 1.64 t-0.9 1.33 t-1.34 0.9 t-1.63 0.33 l-2.8 0 q-0.88 0 -1.64 -0.33 t-1.33 -0.9 t-0.9 -1.33 t-0.33 -1.64 l0 -5.6 q0 -0.86 0.33 -1.63 t0.9 -1.34 t1.33 -0.9 t1.64 -0.33 l2.8 0 q0.86 0 1.63 0.33 t1.34 0.9 t0.9 1.34 t0.33 1.63 l0 0.7 l-2.8 0 z M25.48 6 l0 2.8 l-1.4 0 l0 7 q0 0.88 -0.33 1.64 t-0.9 1.33 t-1.34 0.9 t-1.63 0.33 l-1.96 0 q-0.88 0 -1.64 -0.33 t-1.33 -0.9 t-0.9 -1.33 t-0.33 -1.64 l0 -7 l-1.4 0 l0 -2.8 l5.6 0 l0 2.8 l-1.4 0 l0 7 q0 0.58 0.41 0.99 t0.99 0.41 l1.96 0 q0.58 0 0.99 -0.41 t0.41 -0.99 l0 -7 l-1.4 0 l0 -2.8 l5.6 0 z M33.74 6 q0.86 0 1.63 0.33 t1.34 0.9 t0.9 1.34 t0.33 1.63 l0 5.6 q0 0.88 -0.33 1.64 t-0.9 1.33 t-1.34 0.9 t-1.63 0.33 l-2.8 0 q-0.88 0 -1.64 -0.33 t-1.33 -0.9 t-0.9 -1.33 t-0.33 -1.64 l0 -5.6 q0 -0.86 0.33 -1.63 t0.9 -1.34 t1.33 -0.9 t1.64 -0.33 l2.8 0 z M35.14 10.2 q0 -0.58 -0.41 -0.99 t-0.99 -0.41 l-2.8 0 q-0.58 0 -0.99 0.41 t-0.41 0.99 l0 5.6 q0 0.58 0.41 0.99 t0.99 0.41 l2.8 0 q0.58 0 0.99 -0.41 t0.41 -0.99 l0 -5.6 z M53.04 6 l0 2.8 l-1.4 0 l0 11.2 l-2.8 0 l-5.46 -8.72 l0 5.92 l1.4 0 l0 2.8 l-5.6 0 l0 -2.8 l1.4 0 l0 -8.4 l-1.4 0 l0 -2.8 l4.2 0 l5.46 8.72 l0 -5.92 l-1.4 0 l0 -2.8 l5.6 0 z M62.699999999999996 10.9 l0 -0.7 q0 -0.58 -0.41 -0.99 t-0.99 -0.41 l-2.8 0 q-0.58 0 -0.99 0.41 t-0.41 0.99 l0 5.6 q0 0.58 0.41 0.99 t0.99 0.41 l2.8 0 q0.58 0 0.99 -0.41 t0.41 -0.99 l0 -0.56 l-2.8 0 l0 -2.8 l5.6 0 l0 3.36 q0 0.88 -0.33 1.64 t-0.9 1.33 t-1.34 0.9 t-1.63 0.33 l-2.8 0 q-0.88 0 -1.64 -0.33 t-1.33 -0.9 t-0.9 -1.33 t-0.33 -1.64 l0 -5.6 q0 -0.86 0.33 -1.63 t0.9 -1.34 t1.33 -0.9 t1.64 -0.33 l2.8 0 q0.86 0 1.63 0.33 t1.34 0.9 t0.9 1.34 t0.33 1.63 l0 0.7 l-2.8 0 z M76.42 6 l0 4.2 l-2.8 0 l0 -1.4 l-2.8 0 l0 2.8 l2.8 0 l0 2.8 l-2.8 0 l0 2.8 l1.4 0 l0 2.8 l-5.6 0 l0 -2.8 l1.4 0 l0 -8.4 l-1.4 0 l0 -2.8 l9.8 0 z M87.48 15.8 l0 4.2 l-9.8 0 l0 -2.8 l1.4 0 l0 -8.4 l-1.4 0 l0 -2.8 l5.6 0 l0 2.8 l-1.4 0 l0 8.4 l2.8 0 l0 -1.4 l2.8 0 z M92.94000000000001 17.2 l1.4 0 l0 2.8 l-5.6 0 l0 -2.8 l1.4 0 l0 -8.4 l-1.4 0 l0 -2.8 l5.6 0 l0 2.8 l-1.4 0 l0 8.4 z M103.62 13.08 l3.28 4.12 l1.16 0 l0 2.8 l-5.6 0 l0 -2.8 l0.86 0 l-1.5 -1.88 l-1.5 1.88 l0.88 0 l0 2.8 l-5.6 0 l0 -2.8 l1.14 0 l3.3 -4.12 l-3.4 -4.28 l-1.04 0 l0 -2.8 l5.6 0 l0 2.8 l-0.98 0 l1.6 2.02 l1.62 -2.02 l-0.98 0 l0 -2.8 l5.6 0 l0 2.8 l-1.04 0 z" style="height:auto;overflow-x:visible;overflow-y:visible;width:auto;perspective-origin:0px 0px;transform-origin:0px 0px;fill:rgb(255, 0, 0);d:path('M 8.4 10.9 l 0 -0.7 q 0 -0.58 -0.41 -0.99 t -0.99 -0.41 l -2.8 0 q -0.58 0 -0.99 0.41 t -0.41 0.99 l 0 5.6 q 0 0.58 0.41 0.99 t 0.99 0.41 l 2.8 0 q 0.58 0 0.99 -0.41 t 0.41 -0.99 l 0 -0.7 l 2.8 0 l 0 0.7 q 0 0.88 -0.33 1.64 t -0.9 1.33 t -1.34 0.9 t -1.63 0.33 l -2.8 0 q -0.88 0 -1.64 -0.33 t -1.33 -0.9 t -0.9 -1.33 t -0.33 -1.64 l 0 -5.6 q 0 -0.86 0.33 -1.63 t 0.9 -1.34 t 1.33 -0.9 t 1.64 -0.33 l 2.8 0 q 0.86 0 1.63 0.33 t 1.34 0.9 t 0.9 1.34 t 0.33 1.63 l 0 0.7 l -2.8 0 Z M 25.48 6 l 0 2.8 l -1.4 0 l 0 7 q 0 0.88 -0.33 1.64 t -0.9 1.33 t -1.34 0.9 t -1.63 0.33 l -1.96 0 q -0.88 0 -1.64 -0.33 t -1.33 -0.9 t -0.9 -1.33 t -0.33 -1.64 l 0 -7 l -1.4 0 l 0 -2.8 l 5.6 0 l 0 2.8 l -1.4 0 l 0 7 q 0 0.58 0.41 0.99 t 0.99 0.41 l 1.96 0 q 0.58 0 0.99 -0.41 t 0.41 -0.99 l 0 -7 l -1.4 0 l 0 -2.8 l 5.6 0 Z M 33.74 6 q 0.86 0 1.63 0.33 t 1.34 0.9 t 0.9 1.34 t 0.33 1.63 l 0 5.6 q 0 0.88 -0.33 1.64 t -0.9 1.33 t -1.34 0.9 t -1.63 0.33 l -2.8 0 q -0.88 0 -1.64 -0.33 t -1.33 -0.9 t -0.9 -1.33 t -0.33 -1.64 l 0 -5.6 q 0 -0.86 0.33 -1.63 t 0.9 -1.34 t 1.33 -0.9 t 1.64 -0.33 l 2.8 0 Z M 35.14 10.2 q 0 -0.58 -0.41 -0.99 t -0.99 -0.41 l -2.8 0 q -0.58 0 -0.99 0.41 t -0.41 0.99 l 0 5.6 q 0 0.58 0.41 0.99 t 0.99 0.41 l 2.8 0 q 0.58 0 0.99 -0.41 t 0.41 -0.99 l 0 -5.6 Z M 53.04 6 l 0 2.8 l -1.4 0 l 0 11.2 l -2.8 0 l -5.46 -8.72 l 0 5.92 l 1.4 0 l 0 2.8 l -5.6 0 l 0 -2.8 l 1.4 0 l 0 -8.4 l -1.4 0 l 0 -2.8 l 4.2 0 l 5.46 8.72 l 0 -5.92 l -1.4 0 l 0 -2.8 l 5.6 0 Z M 62.7 10.9 l 0 -0.7 q 0 -0.58 -0.41 -0.99 t -0.99 -0.41 l -2.8 0 q -0.58 0 -0.99 0.41 t -0.41 0.99 l 0 5.6 q 0 0.58 0.41 0.99 t 0.99 0.41 l 2.8 0 q 0.58 0 0.99 -0.41 t 0.41 -0.99 l 0 -0.56 l -2.8 0 l 0 -2.8 l 5.6 0 l 0 3.36 q 0 0.88 -0.33 1.64 t -0.9 1.33 t -1.34 0.9 t -1.63 0.33 l -2.8 0 q -0.88 0 -1.64 -0.33 t -1.33 -0.9 t -0.9 -1.33 t -0.33 -1.64 l 0 -5.6 q 0 -0.86 0.33 -1.63 t 0.9 -1.34 t 1.33 -0.9 t 1.64 -0.33 l 2.8 0 q 0.86 0 1.63 0.33 t 1.34 0.9 t 0.9 1.34 t 0.33 1.63 l 0 0.7 l -2.8 0 Z M 76.42 6 l 0 4.2 l -2.8 0 l 0 -1.4 l -2.8 0 l 0 2.8 l 2.8 0 l 0 2.8 l -2.8 0 l 0 2.8 l 1.4 0 l 0 2.8 l -5.6 0 l 0 -2.8 l 1.4 0 l 0 -8.4 l -1.4 0 l 0 -2.8 l 9.8 0 Z M 87.48 15.8 l 0 4.2 l -9.8 0 l 0 -2.8 l 1.4 0 l 0 -8.4 l -1.4 0 l 0 -2.8 l 5.6 0 l 0 2.8 l -1.4 0 l 0 8.4 l 2.8 0 l 0 -1.4 l 2.8 0 Z M 92.94 17.2 l 1.4 0 l 0 2.8 l -5.6 0 l 0 -2.8 l 1.4 0 l 0 -8.4 l -1.4 0 l 0 -2.8 l 5.6 0 l 0 2.8 l -1.4 0 l 0 8.4 Z M 103.62 13.08 l 3.28 4.12 l 1.16 0 l 0 2.8 l -5.6 0 l 0 -2.8 l 0.86 0 l -1.5 -1.88 l -1.5 1.88 l 0.88 0 l 0 2.8 l -5.6 0 l 0 -2.8 l 1.14 0 l 3.3 -4.12 l -3.4 -4.28 l -1.04 0 l 0 -2.8 l 5.6 0 l 0 2.8 l -0.98 0 l 1.6 2.02 l 1.62 -2.02 l -0.98 0 l 0 -2.8 l 5.6 0 l 0 2.8 l -1.04 0 Z');"/></g></svg>